<?xml version="1.0" encoding="UTF-8" standalone="no" ?>
<!DOCTYPE svg PUBLIC "-//W3C//DTD SVG 1.1//EN" "http://www.w3.org/Graphics/SVG/1.1/DTD/svg11.dtd">
<svg xmlns="http://www.w3.org/2000/svg" xmlns:xlink="http://www.w3.org/1999/xlink" version="1.1" width="500" height="500" viewBox="0 0 500 500" xml:space="preserve">
<!-- Created with SVG Stack Editor - https://svgstack.com -->
<defs>
</defs>
<rect x="0" y="0" width="100%" height="100%" fill="transparent"></rect>
<g transform="matrix(1.35 0 0 1.35 250 250)"  >
<g style=""   >
		<g transform="matrix(1 0 0 1 0 -4.87)" id="path_0"  >
<path style="stroke: none; stroke-width: 1; stroke-dasharray: none; stroke-linecap: butt; stroke-dashoffset: 0; stroke-linejoin: miter; stroke-miterlimit: 4; fill: rgb(32,72,132); fill-rule: nonzero; opacity: 1;"  transform=" translate(-201.35, -195)" d="M 275.793 233.847 L 275.289 233.749 L 275.289 198.68 C 275.289 166.907 275.322 163.598 275.643 163.475 C 275.838 163.4 282.952 163.339 291.453 163.339 C 304.201 163.339 307.383 163.401 309.613 163.69 C 313.721 164.224 316.253 164.949 319.418 166.5 C 322.075 167.801 322.346 167.999 324.706 170.357 C 326.839 172.488 327.325 173.114 328.114 174.744 C 328.62 175.789 329.31 177.55 329.647 178.657 C 330.247 180.622 330.262 180.806 330.269 186.372 C 330.277 191.877 330.257 192.144 329.69 194.087 C 327.38 202.001 321.366 206.959 311.873 208.778 C 309.771 209.181 308.35 209.255 301.161 209.342 C 296.26 209.4 292.782 209.53 292.649 209.658 C 292.508 209.794 292.384 214.322 292.313 221.883 L 292.201 233.892 L 284.249 233.918 C 279.875 233.933 276.07 233.901 275.793 233.847 Z M 305.58 196.556 C 308.12 196.018 310.874 194.01 311.934 191.922 C 312.518 190.773 312.988 187.769 312.932 185.551 C 312.861 182.715 311.442 179.685 309.52 178.266 C 308.019 177.157 306.639 176.762 303.401 176.513 C 300.827 176.315 294.019 176.421 293.623 176.665 C 293.307 176.861 293.383 196.296 293.702 196.614 C 294.108 197.019 303.609 196.973 305.58 196.556 Z M 338.403 233.849 C 338.187 233.793 338.001 233.578 337.988 233.372 C 337.976 233.166 337.951 217.425 337.932 198.392 L 337.899 163.786 L 345.76 163.786 L 353.622 163.786 L 353.769 168.65 C 353.85 171.325 353.92 177.338 353.926 182.011 C 353.937 190.495 354.015 192.186 354.401 192.186 C 354.513 192.186 355.281 191.552 356.108 190.777 C 359.212 187.867 362.861 185.836 365.631 185.477 C 369.527 184.972 374.54 185.363 377.005 186.364 C 382.307 188.518 385.075 192.387 386.282 199.33 C 386.706 201.771 386.747 203.982 386.676 220.645 L 386.62 233.786 L 379.06 233.727 L 371.5 233.668 L 371.388 217.679 C 371.277 201.883 371.27 201.678 370.792 200.645 C 369.776 198.451 367.407 196.517 364.971 195.893 C 363.132 195.422 362.115 195.449 360.446 196.011 C 357.184 197.111 355.005 199.821 354.217 203.758 C 353.934 205.174 353.85 208.104 353.76 219.748 L 353.649 234.003 L 346.222 233.978 C 342.137 233.963 338.618 233.906 338.403 233.849 Z M 16.0491 189.559 C 16.1047 169.102 16.0418 169.878 17.959 166.022 C 18.7632 164.405 19.2895 163.738 21.4843 161.55 C 23.6977 159.343 24.3348 158.846 25.9683 158.051 C 29.6625 156.252 29.8569 156.233 45.4254 156.109 L 59.1702 156 L 61.2179 157.39 C 67.8084 161.866 69.6498 163.169 69.6498 163.36 C 69.6498 163.478 69.423 163.662 69.1458 163.769 C 68.8686 163.877 66.9696 165.113 64.926 166.516 C 62.8823 167.918 60.8158 169.312 60.3338 169.613 L 59.4574 170.159 L 46.353 170.271 L 33.2486 170.383 C 31.6058 170.346 29.8173 171 29.8885 173.44 L 29.8269 190.232 C 29.7837 202.011 29.6919 207.113 29.5195 207.32 C 29.3257 207.553 27.8673 207.616 22.6368 207.616 L 16 207.616 L 16.0491 189.559 Z" stroke-linecap="round" />
</g>
		<g transform="matrix(1 0 0 1 -49.98 3)" id="path_1"  >
<path style="stroke: none; stroke-width: 1; stroke-dasharray: none; stroke-linecap: butt; stroke-dashoffset: 0; stroke-linejoin: miter; stroke-miterlimit: 4; fill: rgb(206,17,38); fill-rule: nonzero; opacity: 1;"  transform=" translate(-151.38, -202.87)" d="M 169.09 243.733 C 168.646 243.492 166.043 240.838 163.802 238.622 L 159.584 234.537 C 157.978 234.651 156.404 235.039 154.801 235.227 C 152.621 235.484 148.697 235.887 148.502 235.571 C 148.366 235.352 148.31 235.354 148.235 235.578 C 148.158 235.807 147.402 235.811 144.344 235.596 C 138.423 235.179 134.301 234.085 129.347 231.614 C 126.117 230.003 124.365 228.723 121.614 225.967 C 117.703 222.048 115.32 218.162 113.582 212.864 C 109.807 201.355 110.948 187.989 116.52 178.451 C 122.872 167.579 133.689 162.015 148.5 162.001 C 156.247 161.995 162.549 163.29 167.919 165.992 C 170.963 167.525 173.092 169.08 175.747 171.711 C 180.142 176.065 183.082 181.266 184.512 188.72 C 185.633 194.565 185.612 198.199 185.588 199.047 C 185.563 199.913 185.889 204.351 183.482 212.759 C 182.293 216.914 179.362 221.943 176.48 225.093 C 175.506 226.158 174.709 227.124 174.709 227.241 C 174.709 227.467 177.308 230.04 179.525 232.007 C 184.012 235.99 184.852 236.931 188.097 239.92 C 189.001 240.753 191.588 243.207 191.969 243.673 C 192.01 243.724 187.612 243.652 183.076 243.703 C 178.539 243.754 173.595 243.709 172.066 243.71 C 170.849 243.71 169.09 243.733 169.09 243.733 Z M 152.137 221.721 C 156.674 220.743 158.015 220.208 159.869 218.639 C 163.084 215.917 165.04 211.99 166.205 205.636 C 166.401 204.563 166.705 202.553 166.623 198.062 C 166.535 193.255 165.668 189.578 165.343 188.625 C 162.615 180.634 158.14 176.052 151.566 175.395 C 150.674 175.306 147.879 175.135 145.833 175.39 C 144.126 175.603 143.232 175.886 141.967 176.3 C 140.68 176.709 138.246 178.34 137.063 179.584 C 132.775 184.097 130.797 190.217 130.807 198.949 C 130.821 210.997 134.547 218.662 141.481 220.906 C 144.264 221.806 149.783 222.229 152.137 221.721 Z M 52.564 236.813 C 51.5737 236.313 45.3263 232.082 44.0299 231.034 L 43.3877 230.515 L 45.486 229.088 C 46.6401 228.303 48.4915 227.062 49.6004 226.329 C 50.7092 225.597 51.8922 224.808 52.2292 224.577 C 53.53 223.682 53.7708 223.666 66.5129 223.615 C 79.8772 223.561 81.3536 223.735 82.5372 222.628 C 83.6641 221.573 83.412 219.362 83.4464 217.79 C 83.4734 216.557 83.4705 209.028 83.4464 201.052 L 83.4026 186.55 L 83.9327 186.349 C 84.2242 186.238 87.2786 186.148 90.7203 186.148 L 96.9779 186.148 L 97.0339 200.851 C 97.1128 221.552 97.1244 220.877 96.6507 223.046 C 95.9054 226.457 93.4096 230.892 91.1537 232.815 C 88.4009 235.161 84.9215 236.85 82.1934 237.165 C 81.2694 237.271 74.4544 237.352 67.049 237.344 L 53.5847 237.329 L 52.564 236.813 Z M 201.309 233.608 C 197.445 233.562 196.217 233.481 196.228 233.272 C 196.236 233.121 196.2 217.335 196.148 198.193 L 196.053 163.389 L 203.358 163.22 C 216.944 162.907 229.936 163.288 234.406 164.132 C 239.889 165.166 243.277 166.709 245.939 169.383 C 247.942 171.395 249.1 173.278 249.921 175.861 C 250.503 177.691 250.847 180.336 250.806 182.682 C 250.759 185.376 250.492 187.659 249.903 189.377 C 249.06 191.836 247.863 193.885 246.499 195.205 C 244.829 196.82 242.441 198.435 239.058 200.01 C 238.365 200.333 234.518 201.98 234.518 202.097 C 234.518 202.343 234.935 202.696 236.199 203.522 C 238.993 205.347 242.483 209.235 245.652 214.055 C 246.599 215.494 247.933 217.427 248.618 218.349 C 249.303 219.271 250.889 221.485 252.143 223.269 C 253.397 225.052 255.463 227.953 256.735 229.714 C 258.007 231.475 259.17 233.087 259.319 233.295 C 259.574 233.649 259.015 233.67 250.695 233.625 C 245.802 233.599 241.469 233.573 241.065 233.567 C 240.277 233.555 240.547 233.928 233.503 223.119 C 226.677 212.646 223.961 209.183 221.414 207.706 C 220.338 207.082 220.183 207.057 217.446 207.057 C 215.03 207.057 214.538 207.116 214.205 207.449 C 213.84 207.813 213.812 208.744 213.805 220.642 C 213.8 228.907 213.718 233.504 213.574 233.613 C 213.451 233.706 211.787 233.756 209.878 233.725 C 207.968 233.693 204.112 233.641 201.309 233.608 Z M 225.059 194.293 C 227.013 193.856 228.122 193.236 229.763 191.664 C 232.039 189.482 232.761 187.876 232.743 185.038 C 232.72 181.523 231.139 178.65 228.563 177.441 C 226.403 176.428 225.304 176.297 219.489 176.36 L 214.022 176.42 L 213.957 184.806 C 213.922 189.418 213.951 193.515 214.022 193.911 L 214.151 194.63 L 216.327 194.693 C 219.87 194.798 223.557 194.628 225.059 194.293 Z" stroke-linecap="round" />
</g>
		<g transform="matrix(1 0 0 1 -145.01 -2.86)" id="path_2"  >
<path style="stroke: none; stroke-width: 1; stroke-dasharray: none; stroke-linecap: butt; stroke-dashoffset: 0; stroke-linejoin: miter; stroke-miterlimit: 4; fill: rgb(252,209,22); fill-rule: nonzero; opacity: 1;"  transform=" translate(-56.35, -197)" d="M 56.346 216.292 C 67.0165 216.292 75.6667 207.657 75.6667 197.005 C 75.6667 186.353 67.0165 177.718 56.346 177.718 C 45.6755 177.718 37.0254 186.353 37.0254 197.005 C 37.0254 207.657 45.6755 216.292 56.346 216.292 Z" stroke-linecap="round" />
</g>
</g>
</g>
<g transform="matrix(1.35 0 0 1.35 250 250)"  >
<g style=""   >
		<g transform="matrix(1 0 0 1 0 -4.87)" id="path_0"  >
<path style="stroke: none; stroke-width: 1; stroke-dasharray: none; stroke-linecap: butt; stroke-dashoffset: 0; stroke-linejoin: miter; stroke-miterlimit: 4; fill: rgb(32,72,132); fill-rule: nonzero; opacity: 1;"  transform=" translate(-201.35, -195)" d="M 275.793 233.847 L 275.289 233.749 L 275.289 198.68 C 275.289 166.907 275.322 163.598 275.643 163.475 C 275.838 163.4 282.952 163.339 291.453 163.339 C 304.201 163.339 307.383 163.401 309.613 163.69 C 313.721 164.224 316.253 164.949 319.418 166.5 C 322.075 167.801 322.346 167.999 324.706 170.357 C 326.839 172.488 327.325 173.114 328.114 174.744 C 328.62 175.789 329.31 177.55 329.647 178.657 C 330.247 180.622 330.262 180.806 330.269 186.372 C 330.277 191.877 330.257 192.144 329.69 194.087 C 327.38 202.001 321.366 206.959 311.873 208.778 C 309.771 209.181 308.35 209.255 301.161 209.342 C 296.26 209.4 292.782 209.53 292.649 209.658 C 292.508 209.794 292.384 214.322 292.313 221.883 L 292.201 233.892 L 284.249 233.918 C 279.875 233.933 276.07 233.901 275.793 233.847 Z M 305.58 196.556 C 308.12 196.018 310.874 194.01 311.934 191.922 C 312.518 190.773 312.988 187.769 312.932 185.551 C 312.861 182.715 311.442 179.685 309.52 178.266 C 308.019 177.157 306.639 176.762 303.401 176.513 C 300.827 176.315 294.019 176.421 293.623 176.665 C 293.307 176.861 293.383 196.296 293.702 196.614 C 294.108 197.019 303.609 196.973 305.58 196.556 Z M 338.403 233.849 C 338.187 233.793 338.001 233.578 337.988 233.372 C 337.976 233.166 337.951 217.425 337.932 198.392 L 337.899 163.786 L 345.76 163.786 L 353.622 163.786 L 353.769 168.65 C 353.85 171.325 353.92 177.338 353.926 182.011 C 353.937 190.495 354.015 192.186 354.401 192.186 C 354.513 192.186 355.281 191.552 356.108 190.777 C 359.212 187.867 362.861 185.836 365.631 185.477 C 369.527 184.972 374.54 185.363 377.005 186.364 C 382.307 188.518 385.075 192.387 386.282 199.33 C 386.706 201.771 386.747 203.982 386.676 220.645 L 386.62 233.786 L 379.06 233.727 L 371.5 233.668 L 371.388 217.679 C 371.277 201.883 371.27 201.678 370.792 200.645 C 369.776 198.451 367.407 196.517 364.971 195.893 C 363.132 195.422 362.115 195.449 360.446 196.011 C 357.184 197.111 355.005 199.821 354.217 203.758 C 353.934 205.174 353.85 208.104 353.76 219.748 L 353.649 234.003 L 346.222 233.978 C 342.137 233.963 338.618 233.906 338.403 233.849 Z M 16.0491 189.559 C 16.1047 169.102 16.0418 169.878 17.959 166.022 C 18.7632 164.405 19.2895 163.738 21.4843 161.55 C 23.6977 159.343 24.3348 158.846 25.9683 158.051 C 29.6625 156.252 29.8569 156.233 45.4254 156.109 L 59.1702 156 L 61.2179 157.39 C 67.8084 161.866 69.6498 163.169 69.6498 163.36 C 69.6498 163.478 69.423 163.662 69.1458 163.769 C 68.8686 163.877 66.9696 165.113 64.926 166.516 C 62.8823 167.918 60.8158 169.312 60.3338 169.613 L 59.4574 170.159 L 46.353 170.271 L 33.2486 170.383 C 31.6058 170.346 29.8173 171 29.8885 173.44 L 29.8269 190.232 C 29.7837 202.011 29.6919 207.113 29.5195 207.32 C 29.3257 207.553 27.8673 207.616 22.6368 207.616 L 16 207.616 L 16.0491 189.559 Z" stroke-linecap="round" />
</g>
		<g transform="matrix(1 0 0 1 -49.98 3)" id="path_1"  >
<path style="stroke: none; stroke-width: 1; stroke-dasharray: none; stroke-linecap: butt; stroke-dashoffset: 0; stroke-linejoin: miter; stroke-miterlimit: 4; fill: rgb(206,17,38); fill-rule: nonzero; opacity: 1;"  transform=" translate(-151.38, -202.87)" d="M 169.09 243.733 C 168.646 243.492 166.043 240.838 163.802 238.622 L 159.584 234.537 C 157.978 234.651 156.404 235.039 154.801 235.227 C 152.621 235.484 148.697 235.887 148.502 235.571 C 148.366 235.352 148.31 235.354 148.235 235.578 C 148.158 235.807 147.402 235.811 144.344 235.596 C 138.423 235.179 134.301 234.085 129.347 231.614 C 126.117 230.003 124.365 228.723 121.614 225.967 C 117.703 222.048 115.32 218.162 113.582 212.864 C 109.807 201.355 110.948 187.989 116.52 178.451 C 122.872 167.579 133.689 162.015 148.5 162.001 C 156.247 161.995 162.549 163.29 167.919 165.992 C 170.963 167.525 173.092 169.08 175.747 171.711 C 180.142 176.065 183.082 181.266 184.512 188.72 C 185.633 194.565 185.612 198.199 185.588 199.047 C 185.563 199.913 185.889 204.351 183.482 212.759 C 182.293 216.914 179.362 221.943 176.48 225.093 C 175.506 226.158 174.709 227.124 174.709 227.241 C 174.709 227.467 177.308 230.04 179.525 232.007 C 184.012 235.99 184.852 236.931 188.097 239.92 C 189.001 240.753 191.588 243.207 191.969 243.673 C 192.01 243.724 187.612 243.652 183.076 243.703 C 178.539 243.754 173.595 243.709 172.066 243.71 C 170.849 243.71 169.09 243.733 169.09 243.733 Z M 152.137 221.721 C 156.674 220.743 158.015 220.208 159.869 218.639 C 163.084 215.917 165.04 211.99 166.205 205.636 C 166.401 204.563 166.705 202.553 166.623 198.062 C 166.535 193.255 165.668 189.578 165.343 188.625 C 162.615 180.634 158.14 176.052 151.566 175.395 C 150.674 175.306 147.879 175.135 145.833 175.39 C 144.126 175.603 143.232 175.886 141.967 176.3 C 140.68 176.709 138.246 178.34 137.063 179.584 C 132.775 184.097 130.797 190.217 130.807 198.949 C 130.821 210.997 134.547 218.662 141.481 220.906 C 144.264 221.806 149.783 222.229 152.137 221.721 Z M 52.564 236.813 C 51.5737 236.313 45.3263 232.082 44.0299 231.034 L 43.3877 230.515 L 45.486 229.088 C 46.6401 228.303 48.4915 227.062 49.6004 226.329 C 50.7092 225.597 51.8922 224.808 52.2292 224.577 C 53.53 223.682 53.7708 223.666 66.5129 223.615 C 79.8772 223.561 81.3536 223.735 82.5372 222.628 C 83.6641 221.573 83.412 219.362 83.4464 217.79 C 83.4734 216.557 83.4705 209.028 83.4464 201.052 L 83.4026 186.55 L 83.9327 186.349 C 84.2242 186.238 87.2786 186.148 90.7203 186.148 L 96.9779 186.148 L 97.0339 200.851 C 97.1128 221.552 97.1244 220.877 96.6507 223.046 C 95.9054 226.457 93.4096 230.892 91.1537 232.815 C 88.4009 235.161 84.9215 236.85 82.1934 237.165 C 81.2694 237.271 74.4544 237.352 67.049 237.344 L 53.5847 237.329 L 52.564 236.813 Z M 201.309 233.608 C 197.445 233.562 196.217 233.481 196.228 233.272 C 196.236 233.121 196.2 217.335 196.148 198.193 L 196.053 163.389 L 203.358 163.22 C 216.944 162.907 229.936 163.288 234.406 164.132 C 239.889 165.166 243.277 166.709 245.939 169.383 C 247.942 171.395 249.1 173.278 249.921 175.861 C 250.503 177.691 250.847 180.336 250.806 182.682 C 250.759 185.376 250.492 187.659 249.903 189.377 C 249.06 191.836 247.863 193.885 246.499 195.205 C 244.829 196.82 242.441 198.435 239.058 200.01 C 238.365 200.333 234.518 201.98 234.518 202.097 C 234.518 202.343 234.935 202.696 236.199 203.522 C 238.993 205.347 242.483 209.235 245.652 214.055 C 246.599 215.494 247.933 217.427 248.618 218.349 C 249.303 219.271 250.889 221.485 252.143 223.269 C 253.397 225.052 255.463 227.953 256.735 229.714 C 258.007 231.475 259.17 233.087 259.319 233.295 C 259.574 233.649 259.015 233.67 250.695 233.625 C 245.802 233.599 241.469 233.573 241.065 233.567 C 240.277 233.555 240.547 233.928 233.503 223.119 C 226.677 212.646 223.961 209.183 221.414 207.706 C 220.338 207.082 220.183 207.057 217.446 207.057 C 215.03 207.057 214.538 207.116 214.205 207.449 C 213.84 207.813 213.812 208.744 213.805 220.642 C 213.8 228.907 213.718 233.504 213.574 233.613 C 213.451 233.706 211.787 233.756 209.878 233.725 C 207.968 233.693 204.112 233.641 201.309 233.608 Z M 225.059 194.293 C 227.013 193.856 228.122 193.236 229.763 191.664 C 232.039 189.482 232.761 187.876 232.743 185.038 C 232.72 181.523 231.139 178.65 228.563 177.441 C 226.403 176.428 225.304 176.297 219.489 176.36 L 214.022 176.42 L 213.957 184.806 C 213.922 189.418 213.951 193.515 214.022 193.911 L 214.151 194.63 L 216.327 194.693 C 219.87 194.798 223.557 194.628 225.059 194.293 Z" stroke-linecap="round" />
</g>
		<g transform="matrix(1 0 0 1 -145.01 -2.86)" id="path_2"  >
<path style="stroke: none; stroke-width: 1; stroke-dasharray: none; stroke-linecap: butt; stroke-dashoffset: 0; stroke-linejoin: miter; stroke-miterlimit: 4; fill: rgb(252,209,22); fill-rule: nonzero; opacity: 1;"  transform=" translate(-56.35, -197)" d="M 56.346 216.292 C 67.0165 216.292 75.6667 207.657 75.6667 197.005 C 75.6667 186.353 67.0165 177.718 56.346 177.718 C 45.6755 177.718 37.0254 186.353 37.0254 197.005 C 37.0254 207.657 45.6755 216.292 56.346 216.292 Z" stroke-linecap="round" />
</g>
</g>
</g>
</svg>